<?xml version="1.0" encoding="utf-8" ?>
<svg xmlns="http://www.w3.org/2000/svg">
    <symbol id="arrow" viewBox="0 0 20 21" fill="none" xmlns="http://www.w3.org/2000/svg">
        <path d="M10 13.684C9.81403 13.6844 9.63378 13.6196 9.49057 13.501L4.7145 9.5209C4.55194 9.38579 4.44972 9.19163 4.43031 8.98114C4.4109 8.77066 4.47591 8.56108 4.61102 8.39852C4.74613 8.23596 4.94029 8.13374 5.15078 8.11433C5.36126 8.09492 5.57084 8.15993 5.7334 8.29504L10 11.8612L14.2666 8.4224C14.3481 8.35628 14.4417 8.3069 14.5423 8.27711C14.6429 8.24731 14.7483 8.23769 14.8526 8.24878C14.9569 8.25988 15.058 8.29148 15.1501 8.34176C15.2421 8.39205 15.3233 8.46003 15.389 8.5418C15.4619 8.62365 15.5171 8.71967 15.5512 8.82385C15.5853 8.92803 15.5974 9.03811 15.587 9.14722C15.5765 9.25632 15.5436 9.36209 15.4904 9.4579C15.4372 9.5537 15.3647 9.63748 15.2776 9.70398L10.5015 13.5487C10.3542 13.6486 10.1776 13.6963 10 13.684Z" fill="#21201F"/>
    </symbol>

    <symbol id="person" viewBox="0 0 19 20" fill="none" xmlns="http://www.w3.org/2000/svg">
        <path d="M12.9057 1.75383C12.0674 0.848758 10.8966 0.350342 9.60421 0.350342C8.30497 0.350342 7.13022 0.845743 6.2958 1.74522C5.45232 2.6546 5.04135 3.89052 5.13785 5.22509C5.32912 7.85804 7.33269 9.99989 9.60421 9.99989C11.8757 9.99989 13.8759 7.85847 14.0701 5.22595C14.1679 3.90344 13.7544 2.67011 12.9057 1.75383Z" fill="#21201F"/>
        <path d="M17.186 19.6495H2.02243C1.82395 19.652 1.6274 19.6103 1.44706 19.5274C1.26672 19.4445 1.10715 19.3224 0.979934 19.17C0.699925 18.8353 0.58706 18.3782 0.670632 17.916C1.03421 15.8991 2.1689 14.2048 3.95234 13.0154C5.53676 11.9595 7.54378 11.3784 9.60422 11.3784C11.6647 11.3784 13.6717 11.96 15.2561 13.0154C17.0395 14.2044 18.1742 15.8986 18.5378 17.9156C18.6214 18.3778 18.5085 18.8348 18.2285 19.1696C18.1013 19.322 17.9418 19.4442 17.7614 19.5272C17.5811 19.6102 17.3845 19.652 17.186 19.6495Z" fill="#21201F"/>
    </symbol>

    <symbol id="telegram" viewBox="0 0 31 26" fill="none" xmlns="http://www.w3.org/2000/svg">
        <path d="M2.16078 11.2044C10.4795 7.5324 16.0253 5.11576 18.7983 3.93882C26.7297 0.596315 28.3718 0.0156925 29.4407 0C29.673 0 30.1997 0.0627701 30.5405 0.329543C30.8194 0.56493 30.9123 0.894473 30.9433 1.11417C30.9743 1.33386 31.0208 1.85171 30.9898 2.24403C30.556 6.81055 28.6971 17.9051 27.7521 23.0209C27.3494 25.1865 26.5593 25.9083 25.8003 25.9868C24.1427 26.1437 22.8879 24.8726 21.2768 23.8055C18.7673 22.1421 17.3421 21.1064 14.91 19.4744C12.0906 17.5913 13.9186 16.5556 15.5296 14.8765C15.9479 14.4371 23.2442 7.70502 23.3836 7.09301C23.3991 7.01455 23.4146 6.73208 23.2442 6.57516C23.0738 6.41823 22.8414 6.481 22.6556 6.51239C22.4077 6.57516 18.3955 9.25858 10.6189 14.5626C9.48809 15.3473 8.45018 15.7396 7.52071 15.7239C6.4983 15.7082 4.54642 15.1433 3.09025 14.6568C1.30877 14.0762 -0.116415 13.7623 0.0075139 12.758C0.0694784 12.2402 0.782071 11.7066 2.1298 11.1574L2.16078 11.2044Z" fill="#21201F"/>
    </symbol>

    <symbol id="vk" viewBox="0 0 38 22" fill="none" xmlns="http://www.w3.org/2000/svg">
        <path fill-rule="evenodd" clip-rule="evenodd" d="M37.1281 1.4897C37.3922 0.630991 37.1281 0 35.8709 0H31.7137C30.6567 0 30.1693 0.545082 29.9051 1.14614C29.9051 1.14614 27.7909 6.16954 24.796 9.4325C23.8271 10.3771 23.3867 10.6777 22.8581 10.6777C22.5939 10.6777 22.1974 10.3771 22.1974 9.51846V1.4897C22.1974 0.45925 21.9046 0 21.0237 0H14.4909C13.8303 0 13.4331 0.478249 13.4331 0.931512C13.4331 1.90836 14.9304 2.13364 15.0848 4.8815V10.8495C15.0848 12.1578 14.8424 12.3951 14.3139 12.3951C12.9045 12.3951 9.47637 7.34929 7.44315 1.57553C7.04469 0.45331 6.64504 0 5.58257 0H1.42535C0.23757 0 0 0.545082 0 1.14614C0 2.21955 1.40939 7.54347 6.56235 14.5847C9.99764 19.3933 14.8377 22 19.242 22C21.8845 22 22.2115 21.4211 22.2115 20.4239V16.7895C22.2115 15.6316 22.4618 15.4005 23.2986 15.4005C23.9152 15.4005 24.9722 15.7011 27.4386 18.0196C30.2574 20.7674 30.7221 22 32.3075 22H36.4648C37.6525 22 38.2464 21.4211 37.9038 20.2785C37.5288 19.1398 36.1832 17.4878 34.3975 15.5293C33.4285 14.413 31.975 13.2108 31.5345 12.6096C30.9179 11.8369 31.0942 11.4934 31.5345 10.8066C31.5345 10.8066 36.5996 3.85105 37.1281 1.4897Z" fill="#21201F"/>
    </symbol>
</svg>
