<?xml version="1.0" encoding="utf-8" ?>
<svg xmlns="http://www.w3.org/2000/svg">
    <symbol id="arrow" viewBox="0 0 20 21" fill="none" xmlns="http://www.w3.org/2000/svg">
        <path d="M10 13.684C9.81403 13.6844 9.63378 13.6196 9.49057 13.501L4.7145 9.5209C4.55194 9.38579 4.44972 9.19163 4.43031 8.98114C4.4109 8.77066 4.47591 8.56108 4.61102 8.39852C4.74613 8.23596 4.94029 8.13374 5.15078 8.11433C5.36126 8.09492 5.57084 8.15993 5.7334 8.29504L10 11.8612L14.2666 8.4224C14.3481 8.35628 14.4417 8.3069 14.5423 8.27711C14.6429 8.24731 14.7483 8.23769 14.8526 8.24878C14.9569 8.25988 15.058 8.29148 15.1501 8.34176C15.2421 8.39205 15.3233 8.46003 15.389 8.5418C15.4619 8.62365 15.5171 8.71967 15.5512 8.82385C15.5853 8.92803 15.5974 9.03811 15.587 9.14722C15.5765 9.25632 15.5436 9.36209 15.4904 9.4579C15.4372 9.5537 15.3647 9.63748 15.2776 9.70398L10.5015 13.5487C10.3542 13.6486 10.1776 13.6963 10 13.684Z" fill="#21201F"/>
    </symbol>

    <symbol id="person" viewBox="0 0 19 20" fill="none" xmlns="http://www.w3.org/2000/svg">
        <path d="M12.9057 1.75383C12.0674 0.848758 10.8966 0.350342 9.60421 0.350342C8.30497 0.350342 7.13022 0.845743 6.2958 1.74522C5.45232 2.6546 5.04135 3.89052 5.13785 5.22509C5.32912 7.85804 7.33269 9.99989 9.60421 9.99989C11.8757 9.99989 13.8759 7.85847 14.0701 5.22595C14.1679 3.90344 13.7544 2.67011 12.9057 1.75383Z" fill="#21201F"/>
        <path d="M17.186 19.6495H2.02243C1.82395 19.652 1.6274 19.6103 1.44706 19.5274C1.26672 19.4445 1.10715 19.3224 0.979934 19.17C0.699925 18.8353 0.58706 18.3782 0.670632 17.916C1.03421 15.8991 2.1689 14.2048 3.95234 13.0154C5.53676 11.9595 7.54378 11.3784 9.60422 11.3784C11.6647 11.3784 13.6717 11.96 15.2561 13.0154C17.0395 14.2044 18.1742 15.8986 18.5378 17.9156C18.6214 18.3778 18.5085 18.8348 18.2285 19.1696C18.1013 19.322 17.9418 19.4442 17.7614 19.5272C17.5811 19.6102 17.3845 19.652 17.186 19.6495Z" fill="#21201F"/>
    </symbol>
</svg>
